{
	"asset":{
		"generator":"Khronos glTF Blender I/O v5.1.19",
		"version":"2.0"
	},
	"scene":0,
	"scenes":[
		{
			"name":"Scene",
			"nodes":[
				0
			]
		}
	],
	"nodes":[
		{
			"mesh":0,
			"name":"Plane",
			"scale":[
				2.6440179347991943,
				0.9144468903541565,
				3.7514870166778564
			]
		}
	],
	"meshes":[
		{
			"name":"Plane",
			"primitives":[
				{
					"attributes":{
						"POSITION":0,
						"NORMAL":1,
						"TEXCOORD_0":2,
						"TANGENT":3
					},
					"indices":4
				}
			]
		}
	],
	"accessors":[
		{
			"bufferView":0,
			"componentType":5126,
			"count":19799,
			"max":[
				0.99988853931427,
				0.20374304056167603,
				0.3665551543235779
			],
			"min":[
				-0.99988853931427,
				0,
				-0.99988853931427
			],
			"type":"VEC3"
		},
		{
			"bufferView":1,
			"componentType":5126,
			"count":19799,
			"type":"VEC3"
		},
		{
			"bufferView":2,
			"componentType":5126,
			"count":19799,
			"type":"VEC2"
		},
		{
			"bufferView":3,
			"componentType":5126,
			"count":19799,
			"type":"VEC4"
		},
		{
			"bufferView":4,
			"componentType":5123,
			"count":31008,
			"type":"SCALAR"
		}
	],
	"bufferViews":[
		{
			"buffer":0,
			"byteLength":237588,
			"byteOffset":0,
			"target":34962
		},
		{
			"buffer":0,
			"byteLength":237588,
			"byteOffset":237588,
			"target":34962
		},
		{
			"buffer":0,
			"byteLength":158392,
			"byteOffset":475176,
			"target":34962
		},
		{
			"buffer":0,
			"byteLength":316784,
			"byteOffset":633568,
			"target":34962
		},
		{
			"buffer":0,
			"byteLength":62016,
			"byteOffset":950352,
			"target":34963
		}
	],
	"buffers":[
		{
			"byteLength":1012368,
			"uri":"floor-cd83aa9c46687446eeac28c9c1a9c7a2.bin"
		}
	]
}
